<?xml version="1.0" encoding="utf-8"?>
<!-- Generator: Adobe Illustrator 16.0.0, SVG Export Plug-In . SVG Version: 6.00 Build 0)  -->
<!DOCTYPE svg PUBLIC "-//W3C//DTD SVG 1.1//EN" "http://www.w3.org/Graphics/SVG/1.1/DTD/svg11.dtd">
<svg version="1.1" id="Layer_1" xmlns="http://www.w3.org/2000/svg" xmlns:xlink="http://www.w3.org/1999/xlink" x="0px" y="0px"
	 width="30px" height="30px" viewBox="0 0 30 30" enable-background="new 0 0 30 30" xml:space="preserve">
<path fill="#E02A29" stroke="#0D2B53" d="M9.331,7.075C8.834,7.563,7.724,8.626,6.865,9.446c-2.686,2.56-4.033,4.309-4.939,6.404
	c-0.292,0.677-0.827,2.372-0.772,2.435c0.016,0.016,0.386,0.173,0.812,0.346c0.756,0.315,1.04,0.473,0.851,0.473
	c-0.094,0-0.023,0.41,0.118,0.686c0.142,0.26,0.481,0.434,2.214,1.127c2.694,1.07,5.152,2.119,7.57,3.229
	c1.252,0.567,1.757,0.717,2.072,0.614c0.449-0.165,0.339-0.654-0.292-1.229c-0.323-0.291-0.354-0.354-0.275-0.496
	c0.047-0.095,0.055-0.197,0.016-0.229c-0.032-0.031-0.473-0.402-0.969-0.828c-0.497-0.425-1.087-0.945-1.308-1.157l-0.41-0.394
	l0.118-0.34c0.142-0.417,0.323-0.543,1.064-0.74c1.323-0.361,2.292-0.441,5.341-0.441c3.214,0,4.136,0.071,7.522,0.576
	c1.088,0.157,2.23,0.291,2.545,0.291c0.536,0,0.6-0.016,0.764-0.213c0.104-0.118,0.205-0.347,0.236-0.52
	c0.063-0.41-0.33-5.231-0.473-5.743c-0.133-0.457-0.433-0.756-0.897-0.898c-0.292-0.087-0.308-0.11-0.354-0.496
	c-0.023-0.221-0.047-0.512-0.047-0.646v-0.245l-0.883-0.212c-1.347-0.315-2.733-0.567-4.207-0.764
	c-1.157-0.158-1.678-0.181-3.97-0.189c-2.813,0-3.285,0.039-5.664,0.441c-0.756,0.126-1.386,0.213-1.41,0.189
	c-0.023-0.023,0-0.039,0.055-0.039c0.15,0,0.583-1,0.623-1.434c0.063-0.685-0.371-0.898-0.993-0.48
	c-0.37,0.252-1.032,0.867-1.174,1.095C9.606,9.84,9.945,9.06,10.513,7.886c0.26-0.552,0.465-1.048,0.449-1.103
	c-0.023-0.047-0.189-0.197-0.386-0.339L10.229,6.2L9.331,7.075z"/>
</svg>
