<?xml version="1.0" encoding="utf-8"?>
<!-- Generator: Adobe Illustrator 16.0.0, SVG Export Plug-In . SVG Version: 6.00 Build 0)  -->
<!DOCTYPE svg PUBLIC "-//W3C//DTD SVG 1.1//EN" "http://www.w3.org/Graphics/SVG/1.1/DTD/svg11.dtd">
<svg version="1.1" id="Layer_1" xmlns="http://www.w3.org/2000/svg" xmlns:xlink="http://www.w3.org/1999/xlink" x="0px" y="0px"
	 width="30px" height="30px" viewBox="0 0 30 30" enable-background="new 0 0 30 30" xml:space="preserve">
<path fill="#E02A29" d="M19.107,5.555c-0.213,0.14-0.395,0.28-0.395,0.321c0,0.033,0.189,0.47,0.412,0.964
	c0.436,0.947,0.461,1.03,0.328,0.947c-0.049-0.033-0.082,0.091-0.082,0.305c0,0.247,0.123,0.61,0.404,1.219
	c0.23,0.478,0.379,0.874,0.338,0.89c-0.033,0.016-0.43-0.066-0.873-0.182c-4.399-1.112-8.742-1.301-13.42-0.584
	c-1.607,0.247-4.004,0.766-4.128,0.898C1.619,10.399,0.992,17.361,1,18.02c0,0.058,0.083,0.107,0.189,0.107
	c0.165,0,0.19,0.032,0.157,0.238c-0.016,0.132,0.041,0.404,0.131,0.61c0.272,0.609,0.462,0.633,2.546,0.313
	c4.103-0.618,5.956-0.775,9.004-0.775c2.497,0,3.741,0.1,5.125,0.412c0.33,0.075,0.684,0.133,0.783,0.141
	c0.146,0.008,0.156,0.033,0.082,0.173c-0.141,0.264-1.426,1.491-2.637,2.513l-1.12,0.939l0.164,0.296
	c0.091,0.157,0.214,0.354,0.272,0.438c0.123,0.157,0.098,0.164,0.996-0.222c0.273-0.116,0.42-0.166,0.33-0.108
	c-0.321,0.198-0.84,0.782-0.897,1.005c-0.042,0.149-0.009,0.289,0.082,0.429c0.239,0.371,0.626,0.256,3.698-1.104
	c2.918-1.294,4.877-2.118,6.805-2.867c1.969-0.766,2.217-0.964,2.217-1.738c0-0.255-0.033-0.527-0.082-0.609
	c-0.059-0.107-0.049-0.157,0.041-0.198c0.189-0.065,0.156-0.279-0.207-1.384c-0.725-2.208-1.803-3.962-3.779-6.121
	c-0.627-0.684-2.053-2.06-4.457-4.317L19.494,5.3L19.107,5.555z"/>
</svg>
