<?xml version="1.0" encoding="utf-8"?>
<!-- Generator: Adobe Illustrator 16.0.0, SVG Export Plug-In . SVG Version: 6.00 Build 0)  -->
<!DOCTYPE svg PUBLIC "-//W3C//DTD SVG 1.1//EN" "http://www.w3.org/Graphics/SVG/1.1/DTD/svg11.dtd">
<svg version="1.1" id="Layer_1" xmlns="http://www.w3.org/2000/svg" xmlns:xlink="http://www.w3.org/1999/xlink" x="0px" y="0px"
	 width="30px" height="30px" viewBox="0 0 30 30" enable-background="new 0 0 30 30" xml:space="preserve">
<path fill="#E02A29" stroke="#fff" d="M10.715,2.526c-1.237,3.169-2.972,7.207-4.257,9.903c-0.284,0.607-0.505,1.144-0.481,1.19
	c0.016,0.056,0.197,0.189,0.402,0.315c0.308,0.174,0.386,0.197,0.465,0.11c0.056-0.063,0.426-0.489,0.828-0.962
	c0.726-0.836,0.985-1.08,0.615-0.592c-0.276,0.371-0.702,1.389-0.749,1.783c-0.024,0.252,0,0.37,0.103,0.488
	c0.339,0.379,0.67,0.166,1.899-1.19c1.018-1.12,1.774-1.829,2.082-1.924c0.087-0.024,0.157-0.087,0.157-0.142
	s0.024-0.063,0.079-0.008c0.103,0.103,0.292,1.261,0.402,2.483c0.126,1.482,0.047,5.125-0.158,7.089
	c-0.188,1.742-0.48,3.863-0.765,5.464c-0.103,0.6-0.189,1.119-0.189,1.167c0,0.063,0.229,0.071,0.757,0.032
	c0.733-0.056,0.75-0.048,0.655,0.094c-0.135,0.213-0.024,0.71,0.196,0.931c0.111,0.11,0.324,0.205,0.528,0.236
	c0.395,0.056,5.235-0.315,5.686-0.441c0.347-0.087,0.733-0.394,0.898-0.71c0.149-0.291,0.449-1.64,0.662-2.917
	c0.671-4.163,0.607-7.9-0.197-11.858c-0.149-0.733-0.275-1.458-0.275-1.616c0-0.781,0.536-0.836,1.893-0.205
	c0.504,0.236,1.063,0.466,1.253,0.513c0.867,0.189,1.096-0.426,0.449-1.214c-0.149-0.181-0.26-0.355-0.229-0.378
	c0.048-0.055-3.658-3.974-4.707-4.967c-2.026-1.932-3.958-3.154-6.039-3.832c-0.521-0.166-1.033-0.323-1.151-0.355
	C11.322,0.965,11.314,0.98,10.715,2.526z"/>
</svg>
