<?xml version="1.0" encoding="utf-8"?>
<!-- Generator: Adobe Illustrator 16.0.0, SVG Export Plug-In . SVG Version: 6.00 Build 0)  -->
<!DOCTYPE svg PUBLIC "-//W3C//DTD SVG 1.1//EN" "http://www.w3.org/Graphics/SVG/1.1/DTD/svg11.dtd">
<svg version="1.1" id="Layer_1" xmlns="http://www.w3.org/2000/svg" xmlns:xlink="http://www.w3.org/1999/xlink" x="0px" y="0px"
	 width="30px" height="30px" viewBox="0 0 30 30" enable-background="new 0 0 30 30" xml:space="preserve">
<path fill="#E02A29" stroke="#0D2B53" d="M13.481,1.259l-3.023,0.244l-0.212,0.816C9.65,4.635,9.32,7.132,9.265,9.848
	c-0.071,3.431,0.228,5.92,1.068,8.998l0.228,0.848l-0.243-0.047c-0.142-0.031-1.107-0.463-2.151-0.957
	c-1.044-0.504-1.924-0.896-1.963-0.873c-0.04,0.025-0.181,0.197-0.314,0.393l-0.251,0.346l0.322,0.307
	c0.173,0.166,0.667,0.691,1.107,1.17c0.432,0.471,1.35,1.453,2.025,2.168c0.683,0.721,1.217,1.334,1.186,1.365
	c-0.031,0.023,0,0.039,0.063,0.023c0.063-0.008,0.11,0.016,0.102,0.07c-0.023,0.104,1.727,1.783,2.685,2.576
	c1.798,1.492,4.594,2.896,5.48,2.756c0.645-0.102,0.762-0.275,1.555-2.254c0.816-2.057,1.845-4.482,2.873-6.783
	c1.225-2.725,1.312-3.18,0.598-3.18c-0.307,0-0.762,0.393-1.673,1.436c-0.282,0.33-0.519,0.582-0.534,0.566
	c-0.023-0.023,0.621-1.508,1.232-2.818c0.221-0.464,0.4-0.88,0.4-0.912c0-0.063-0.785-0.581-0.816-0.533
	c-0.008,0.016-0.51,0.604-1.122,1.318c-1.092,1.281-1.947,2.16-2.435,2.498c-0.227,0.156-0.251,0.164-0.243,0.039
	c0-0.078-0.063-0.637-0.142-1.24c-0.109-0.855-0.141-1.586-0.141-3.337c0.008-2.834,0.164-4.656,0.746-8.503
	c0.211-1.397,0.234-1.68,0.156-1.947c-0.133-0.432-0.463-0.636-1.013-0.604c-0.479,0.031-0.471,0.063-0.29-0.958
	c0.063-0.369,0.117-0.691,0.117-0.73C17.878,0.945,16.575,1.008,13.481,1.259z"/>
</svg>
